<svg xmlns="http://www.w3.org/2000/svg" xmlns:xlink="http://www.w3.org/1999/xlink" width="500" zoomAndPan="magnify" viewBox="0 0 375 374.999991" height="500" preserveAspectRatio="xMidYMid meet" version="1.0"><defs><clipPath id="fa50948da3"><path d="M 54.546875 73 L 320.796875 73 L 320.796875 375 L 54.546875 375 Z M 54.546875 73 " clip-rule="nonzero"/></clipPath></defs><g clip-path="url(#fa50948da3)"><path fill="#264de4" d="M 187.554688 375.378906 L 78.820312 345.21875 L 54.59375 73.632812 L 320.84375 73.628906 L 296.597656 345.171875 L 187.5625 375.375 Z M 187.554688 375.378906 " fill-opacity="1" fill-rule="nonzero"/></g><path fill="#2965f1" d="M 275.832031 327.882812 L 296.558594 95.835938 L 187.722656 95.835938 L 187.722656 352.285156 L 275.832031 327.878906 Z M 275.832031 327.882812 " fill-opacity="1" fill-rule="nonzero"/><path fill="#ebebeb" d="M 110.144531 196.566406 L 113.128906 229.867188 L 187.722656 229.867188 L 187.722656 196.566406 Z M 110.144531 196.566406 " fill-opacity="1" fill-rule="nonzero"/><path fill="#ebebeb" d="M 104.140625 129.140625 L 107.167969 162.449219 L 187.722656 162.449219 L 187.722656 129.140625 Z M 104.140625 129.140625 " fill-opacity="1" fill-rule="nonzero"/><path fill="#ebebeb" d="M 187.722656 283.066406 L 187.578125 283.109375 L 150.453125 273.085938 L 148.082031 246.523438 L 114.621094 246.523438 L 119.289062 298.828125 L 187.566406 317.765625 L 187.722656 317.726562 Z M 187.722656 283.066406 " fill-opacity="1" fill-rule="nonzero"/><path fill="#000000" d="M 117.253906 -0.175781 L 157.628906 -0.175781 L 157.628906 16.695312 L 134.136719 16.695312 L 134.136719 33.566406 L 157.628906 33.566406 L 157.628906 50.433594 L 117.253906 50.433594 Z M 117.253906 -0.175781 " fill-opacity="1" fill-rule="nonzero"/><path fill="#000000" d="M 165.699219 -0.175781 L 206.070312 -0.175781 L 206.070312 14.496094 L 182.585938 14.496094 L 182.585938 17.429688 L 206.070312 17.429688 L 206.070312 51.167969 L 165.699219 51.167969 L 165.699219 35.765625 L 189.195312 35.765625 L 189.195312 32.832031 L 165.699219 32.832031 Z M 165.699219 -0.175781 " fill-opacity="1" fill-rule="nonzero"/><path fill="#000000" d="M 214.148438 -0.175781 L 254.519531 -0.175781 L 254.519531 14.496094 L 231.027344 14.496094 L 231.027344 17.429688 L 254.519531 17.429688 L 254.519531 51.167969 L 214.148438 51.167969 L 214.148438 35.765625 L 237.632812 35.765625 L 237.632812 32.832031 L 214.148438 32.832031 Z M 214.148438 -0.175781 " fill-opacity="1" fill-rule="nonzero"/><path fill="#ffffff" d="M 265.09375 196.566406 L 271.105469 129.140625 L 187.609375 129.140625 L 187.609375 162.449219 L 234.574219 162.449219 L 231.546875 196.566406 L 187.609375 196.566406 L 187.609375 229.867188 L 228.65625 229.867188 L 224.785156 273.066406 L 187.609375 283.097656 L 187.609375 317.746094 L 255.9375 298.828125 L 256.441406 293.195312 L 264.277344 205.503906 Z M 265.09375 196.566406 " fill-opacity="1" fill-rule="nonzero"/></svg>