<svg xmlns="http://www.w3.org/2000/svg" xmlns:xlink="http://www.w3.org/1999/xlink" width="500" zoomAndPan="magnify" viewBox="0 0 375 374.999991" height="500" preserveAspectRatio="xMidYMid meet" version="1.0"><defs><clipPath id="75ecf2d68c"><path d="M 45 73 L 311.207031 73 L 311.207031 375 L 45 375 Z M 45 73 " clip-rule="nonzero"/></clipPath></defs><g clip-path="url(#75ecf2d68c)"><path fill="#e44d26" d="M 311.257812 73.628906 L 287.003906 345.171875 L 177.964844 375.375 L 69.234375 345.210938 L 45.003906 73.628906 L 311.253906 73.625 L 311.261719 73.625 Z M 311.257812 73.628906 " fill-opacity="1" fill-rule="nonzero"/></g><path fill="#f16529" d="M 178.132812 352.289062 L 266.242188 327.882812 L 286.972656 95.835938 L 178.132812 95.835938 Z M 178.132812 352.289062 " fill-opacity="1" fill-rule="nonzero"/><path fill="#ebebeb" d="M 130.980469 162.449219 L 178.132812 162.449219 L 178.132812 129.140625 L 94.550781 129.140625 L 95.347656 138.078125 L 103.539062 229.867188 L 178.132812 229.867188 L 178.132812 196.566406 L 134.023438 196.566406 Z M 130.980469 162.449219 " fill-opacity="1" fill-rule="nonzero"/><path fill="#ebebeb" d="M 138.492188 246.523438 L 105.03125 246.523438 L 109.699219 298.828125 L 177.976562 317.765625 L 178.132812 317.726562 L 178.132812 283.066406 L 177.988281 283.109375 L 140.863281 273.085938 Z M 138.492188 246.523438 " fill-opacity="1" fill-rule="nonzero"/><path fill="#000000" d="M 69.777344 -0.175781 L 86.714844 -0.175781 L 86.714844 16.546875 L 102.210938 16.546875 L 102.210938 -0.175781 L 119.152344 -0.175781 L 119.152344 50.46875 L 102.210938 50.46875 L 102.210938 33.507812 L 86.714844 33.507812 L 86.714844 50.46875 L 69.777344 50.46875 Z M 69.777344 -0.175781 " fill-opacity="1" fill-rule="nonzero"/><path fill="#000000" d="M 141.425781 16.617188 L 126.515625 16.617188 L 126.515625 -0.175781 L 173.289062 -0.175781 L 173.289062 16.617188 L 158.367188 16.617188 L 158.367188 50.46875 L 141.429688 50.46875 L 141.429688 16.617188 Z M 141.425781 16.617188 " fill-opacity="1" fill-rule="nonzero"/><path fill="#000000" d="M 180.710938 -0.175781 L 198.371094 -0.175781 L 209.234375 17.617188 L 220.089844 -0.175781 L 237.761719 -0.175781 L 237.761719 50.46875 L 220.894531 50.46875 L 220.894531 25.367188 L 209.234375 43.371094 L 208.945312 43.371094 L 197.285156 25.367188 L 197.285156 50.46875 L 180.710938 50.46875 Z M 180.710938 -0.175781 " fill-opacity="1" fill-rule="nonzero"/><path fill="#000000" d="M 246.195312 -0.175781 L 263.132812 -0.175781 L 263.132812 33.726562 L 286.960938 33.726562 L 286.960938 50.46875 L 246.195312 50.46875 Z M 246.195312 -0.175781 " fill-opacity="1" fill-rule="nonzero"/><path fill="#ffffff" d="M 178.019531 229.867188 L 219.066406 229.867188 L 215.195312 273.066406 L 178.019531 283.097656 L 178.019531 317.746094 L 246.351562 298.828125 L 246.851562 293.195312 L 254.6875 205.503906 L 255.503906 196.566406 L 178.019531 196.566406 Z M 178.019531 229.867188 " fill-opacity="1" fill-rule="nonzero"/><path fill="#ffffff" d="M 178.019531 162.367188 L 178.019531 162.449219 L 258.53125 162.449219 L 259.199219 154.960938 L 260.722656 138.078125 L 261.515625 129.140625 L 178.019531 129.140625 Z M 178.019531 162.367188 " fill-opacity="1" fill-rule="nonzero"/></svg>