<svg xmlns="http://www.w3.org/2000/svg" xmlns:xlink="http://www.w3.org/1999/xlink" width="500" zoomAndPan="magnify" viewBox="0 0 375 374.999991" height="500" preserveAspectRatio="xMidYMid meet" version="1.0"><defs><clipPath id="2885126973"><path d="M 0 21 L 374.90625 21 L 374.90625 355 L 0 355 Z M 0 21 " clip-rule="nonzero"/></clipPath></defs><g clip-path="url(#2885126973)"><path fill="#00d8ff" d="M 307.921875 128.980469 C 304.050781 127.644531 300.03125 126.378906 295.882812 125.183594 C 296.570312 122.402344 297.199219 119.660156 297.753906 116.960938 C 306.855469 72.667969 300.910156 36.984375 280.554688 25.238281 C 261.035156 13.972656 229.125 25.71875 196.890625 53.796875 C 193.792969 56.5 190.679688 59.355469 187.582031 62.351562 C 185.507812 60.371094 183.449219 58.457031 181.386719 56.621094 C 147.605469 26.597656 113.746094 13.945312 93.417969 25.726562 C 73.921875 37.023438 68.148438 70.570312 76.351562 112.546875 C 77.144531 116.601562 78.070312 120.742188 79.117188 124.953125 C 74.328125 126.3125 69.699219 127.765625 65.273438 129.308594 C 25.671875 143.132812 0.382812 164.792969 0.382812 187.265625 C 0.382812 210.464844 27.53125 233.75 68.78125 247.867188 C 72.035156 248.976562 75.414062 250.03125 78.894531 251.027344 C 77.761719 255.574219 76.78125 260.035156 75.957031 264.394531 C 68.132812 305.644531 74.242188 338.394531 93.683594 349.613281 C 113.765625 361.210938 147.476562 349.292969 180.292969 320.578125 C 182.894531 318.3125 185.492188 315.898438 188.09375 313.382812 C 191.484375 316.628906 194.859375 319.714844 198.207031 322.613281 C 230 349.992188 261.398438 361.050781 280.820312 349.804688 C 300.878906 338.175781 307.410156 302.980469 298.9375 260.183594 C 298.292969 256.90625 297.535156 253.570312 296.703125 250.175781 C 299.070312 249.476562 301.390625 248.742188 303.65625 247.996094 C 346.542969 233.765625 374.433594 210.785156 374.433594 187.265625 C 374.433594 164.710938 348.324219 142.90625 307.921875 128.980469 Z M 298.628906 232.816406 C 296.585938 233.488281 294.480469 234.144531 292.347656 234.773438 C 287.613281 219.78125 281.226562 203.824219 273.394531 187.339844 C 280.863281 171.25 287 155.5 291.601562 140.597656 C 295.429688 141.703125 299.140625 142.875 302.722656 144.105469 C 337.335938 156.035156 358.449219 173.675781 358.449219 187.265625 C 358.449219 201.730469 335.65625 220.527344 298.628906 232.816406 Z M 283.257812 263.285156 C 287.015625 282.210938 287.539062 299.324219 285.054688 312.707031 C 282.835938 324.730469 278.351562 332.75 272.8125 335.953125 C 261.019531 342.78125 235.816406 333.902344 208.636719 310.484375 C 205.511719 307.792969 202.371094 304.925781 199.226562 301.898438 C 209.761719 290.359375 220.296875 276.945312 230.585938 262.039062 C 248.660156 260.445312 265.738281 257.8125 281.242188 254.230469 C 282.003906 257.316406 282.675781 260.328125 283.257812 263.285156 Z M 127.910156 334.765625 C 116.394531 338.847656 107.21875 338.964844 101.675781 335.761719 C 89.875 328.945312 84.972656 302.644531 91.660156 267.378906 C 92.429688 263.34375 93.339844 259.1875 94.394531 254.945312 C 109.714844 258.339844 126.671875 260.78125 144.800781 262.246094 C 155.152344 276.828125 165.992188 290.226562 176.90625 301.957031 C 174.527344 304.269531 172.144531 306.464844 169.777344 308.527344 C 155.269531 321.238281 140.726562 330.246094 127.910156 334.765625 Z M 73.953125 232.726562 C 55.714844 226.480469 40.652344 218.378906 30.328125 209.515625 C 21.050781 201.570312 16.367188 193.671875 16.367188 187.265625 C 16.367188 173.632812 36.671875 156.234375 70.539062 144.414062 C 74.648438 142.980469 78.953125 141.628906 83.414062 140.359375 C 88.097656 155.601562 94.234375 171.542969 101.644531 187.644531 C 94.140625 204 87.914062 220.191406 83.1875 235.625 C 80.003906 234.703125 76.921875 233.738281 73.953125 232.726562 Z M 92.039062 109.476562 C 85.011719 73.511719 89.679688 46.382812 101.429688 39.570312 C 113.941406 32.320312 141.613281 42.660156 170.769531 68.585938 C 172.640625 70.242188 174.511719 71.976562 176.398438 73.769531 C 165.527344 85.453125 154.785156 98.753906 144.527344 113.246094 C 126.933594 114.878906 110.09375 117.5 94.613281 121.011719 C 93.640625 117.089844 92.777344 113.242188 92.039062 109.476562 Z M 253.378906 149.359375 C 249.683594 142.960938 245.882812 136.710938 242.011719 130.632812 C 253.949219 132.144531 265.375 134.148438 276.117188 136.601562 C 272.902344 146.945312 268.882812 157.757812 264.148438 168.851562 C 260.757812 162.398438 257.164062 155.894531 253.378906 149.359375 Z M 187.585938 85.203125 C 194.964844 93.195312 202.34375 102.121094 209.605469 111.804688 C 202.285156 111.457031 194.875 111.277344 187.410156 111.277344 C 180.015625 111.277344 172.667969 111.453125 165.390625 111.796875 C 172.652344 102.203125 180.105469 93.289062 187.585938 85.203125 Z M 121.367188 149.46875 C 117.671875 155.886719 114.148438 162.355469 110.808594 168.835938 C 106.15625 157.785156 102.175781 146.921875 98.921875 136.433594 C 109.597656 134.042969 120.976562 132.085938 132.835938 130.605469 C 128.90625 136.738281 125.074219 143.03125 121.367188 149.46875 Z M 133.175781 245.058594 C 120.925781 243.699219 109.371094 241.839844 98.703125 239.515625 C 102.007812 228.835938 106.074219 217.75 110.828125 206.457031 C 114.175781 212.9375 117.710938 219.402344 121.429688 225.835938 L 121.433594 225.835938 C 125.222656 232.390625 129.148438 238.796875 133.175781 245.058594 Z M 188.023438 290.445312 C 180.453125 282.269531 172.898438 273.214844 165.519531 263.488281 C 172.679688 263.765625 179.988281 263.914062 187.410156 263.914062 C 195.035156 263.914062 202.574219 263.738281 209.984375 263.414062 C 202.707031 273.316406 195.34375 282.386719 188.023438 290.445312 Z M 264.292969 205.886719 C 269.292969 217.296875 273.515625 228.324219 276.859375 238.828125 C 266.019531 241.296875 254.300781 243.289062 241.96875 244.78125 C 245.855469 238.621094 249.683594 232.257812 253.453125 225.722656 C 257.265625 219.109375 260.875 212.484375 264.292969 205.886719 Z M 239.601562 217.734375 C 233.757812 227.886719 227.75 237.570312 221.660156 246.710938 C 210.570312 247.5 199.097656 247.910156 187.410156 247.910156 C 175.765625 247.910156 164.441406 247.558594 153.539062 246.84375 C 147.199219 237.582031 141.070312 227.871094 135.257812 217.820312 L 135.261719 217.820312 C 129.464844 207.800781 124.132812 197.695312 119.300781 187.644531 C 124.132812 177.582031 129.453125 167.460938 135.210938 157.460938 C 140.988281 147.433594 147.066406 137.765625 153.351562 128.554688 C 164.46875 127.714844 175.878906 127.273438 187.410156 127.273438 C 198.996094 127.273438 210.40625 127.71875 221.527344 128.566406 C 227.722656 137.707031 233.757812 147.34375 239.558594 157.375 C 245.417969 167.519531 250.808594 177.566406 255.675781 187.425781 C 250.824219 197.445312 245.445312 207.597656 239.601562 217.734375 Z M 272.566406 39.09375 C 285.101562 46.324219 289.96875 75.484375 282.089844 113.730469 C 281.59375 116.167969 281.023438 118.652344 280.410156 121.171875 C 264.894531 117.585938 248.046875 114.921875 230.410156 113.265625 C 220.125 98.613281 209.472656 85.289062 198.777344 73.757812 C 201.65625 70.992188 204.535156 68.351562 207.382812 65.859375 C 235 41.800781 260.816406 32.304688 272.566406 39.09375 Z M 187.410156 153.820312 C 205.847656 153.820312 220.8125 168.789062 220.8125 187.261719 C 220.8125 205.722656 205.847656 220.699219 187.410156 220.699219 C 168.96875 220.699219 154.007812 205.722656 154.007812 187.261719 C 154.007812 168.789062 168.96875 153.820312 187.410156 153.820312 Z M 187.410156 153.820312 " fill-opacity="1" fill-rule="nonzero"/></g></svg>