<svg xmlns="http://www.w3.org/2000/svg" xmlns:xlink="http://www.w3.org/1999/xlink" width="500" zoomAndPan="magnify" viewBox="0 0 375 374.999991" height="500" preserveAspectRatio="xMidYMid meet" version="1.0"><path fill="#cf649a" d="M 321.964844 206.730469 C 308.980469 206.808594 297.746094 209.925781 288.320312 214.566406 C 284.839844 207.671875 281.359375 201.652344 280.777344 197.15625 C 280.121094 191.933594 279.328125 188.742188 280.121094 182.503906 C 280.917969 176.261719 284.546875 167.414062 284.546875 166.6875 C 284.476562 166.03125 283.746094 162.839844 276.28125 162.769531 C 268.816406 162.699219 262.359375 164.222656 261.632812 166.183594 C 260.335938 169.8125 259.296875 173.511719 258.511719 177.285156 C 257.207031 184.105469 243.574219 208.265625 235.8125 220.960938 C 233.273438 216.03125 231.097656 211.675781 230.664062 208.195312 C 230.007812 202.972656 229.210938 199.78125 230.007812 193.539062 C 230.800781 187.300781 234.433594 178.453125 234.433594 177.726562 C 234.363281 177.070312 233.632812 173.878906 226.167969 173.808594 C 218.699219 173.738281 212.242188 175.257812 211.519531 177.222656 C 210.792969 179.183594 209.992188 183.824219 208.398438 188.324219 C 206.871094 192.820312 188.742188 233.160156 184.035156 243.675781 C 181.636719 249.046875 179.539062 253.328125 178.011719 256.230469 C 176.484375 259.132812 177.941406 256.453125 177.796875 256.742188 L 175.765625 260.589844 L 175.765625 260.660156 C 174.75 262.476562 173.660156 264.214844 173.15625 264.214844 C 172.796875 264.214844 172.066406 259.351562 173.300781 252.679688 C 175.988281 238.675781 182.511719 216.835938 182.4375 216.042969 C 182.4375 215.679688 183.671875 211.832031 178.230469 209.871094 C 172.9375 207.910156 171.050781 211.175781 170.617188 211.175781 C 170.179688 211.175781 169.816406 212.339844 169.816406 212.339844 C 169.816406 212.339844 175.691406 187.742188 158.574219 187.742188 C 147.839844 187.742188 133.046875 199.425781 125.722656 210.085938 L 88.734375 230.328125 L 87.933594 229.457031 C 67.207031 207.3125 28.84375 191.644531 30.4375 161.898438 C 31.019531 151.085938 34.789062 122.574219 104.113281 88.042969 C 160.894531 59.75 206.367188 67.511719 214.273438 84.777344 C 225.515625 109.441406 189.980469 155.289062 130.949219 161.90625 C 108.46875 164.449219 96.644531 155.734375 93.671875 152.472656 C 90.550781 149.0625 90.113281 148.917969 88.953125 149.574219 C 87.070312 150.589844 88.230469 153.636719 88.953125 155.453125 C 90.695312 160.023438 97.945312 168.148438 110.273438 172.210938 C 121.082031 175.769531 147.476562 177.726562 179.386719 165.394531 C 215.136719 151.535156 243.058594 113.085938 234.863281 80.953125 C 226.519531 48.230469 172.28125 37.496094 121.003906 55.707031 C 90.480469 66.574219 57.472656 83.546875 33.6875 105.820312 C 5.347656 132.226562 0.855469 155.300781 2.734375 164.875 C 9.335938 199.046875 56.394531 221.324219 75.246094 237.792969 L 72.636719 239.242188 C 63.210938 243.886719 27.3125 262.679688 18.320312 282.554688 C 8.167969 305.042969 19.914062 321.226562 27.746094 323.402344 C 51.964844 330.152344 76.765625 318.03125 90.183594 298.082031 C 103.527344 278.128906 101.929688 252.230469 95.769531 240.40625 L 95.550781 239.96875 L 102.945312 235.617188 C 107.730469 232.785156 112.449219 230.171875 116.578125 227.925781 C 114.257812 234.242188 112.585938 241.710938 111.71875 252.59375 C 110.703125 265.359375 115.921875 281.898438 122.816406 288.433594 C 125.859375 291.265625 129.484375 291.335938 131.738281 291.335938 C 139.714844 291.335938 143.339844 284.730469 147.332031 276.828125 C 152.261719 267.175781 156.613281 256.003906 156.613281 256.003906 C 156.613281 256.003906 151.171875 286.257812 166.039062 286.257812 C 171.480469 286.257812 176.914062 279.21875 179.382812 275.589844 L 179.382812 275.660156 C 179.382812 275.660156 179.527344 275.441406 179.816406 274.9375 C 180.394531 274.066406 180.6875 273.554688 180.6875 273.554688 L 180.6875 273.410156 C 182.863281 269.636719 187.722656 261 194.972656 246.714844 C 204.332031 228.285156 213.324219 205.21875 213.324219 205.21875 C 213.324219 205.21875 214.191406 210.875 216.878906 220.160156 C 218.472656 225.675781 221.953125 231.699219 224.640625 237.574219 L 221.160156 242.359375 L 221.230469 242.4375 C 219.375 244.898438 217.460938 247.316406 215.5 249.691406 C 208.101562 258.539062 199.253906 268.628906 198.09375 271.527344 C 196.714844 274.941406 197.003906 277.476562 199.691406 279.507812 C 201.652344 280.960938 205.132812 281.25 208.828125 280.960938 C 215.5 280.523438 220.140625 278.851562 222.460938 277.835938 C 226.667969 276.335938 230.582031 274.28125 234.207031 271.667969 C 241.457031 266.300781 245.882812 258.679688 245.449219 248.523438 C 245.230469 242.933594 243.417969 237.421875 241.167969 232.199219 L 243.128906 229.296875 C 254.585938 212.535156 263.433594 194.109375 263.433594 194.109375 C 263.433594 194.109375 264.300781 199.769531 266.988281 209.054688 C 268.367188 213.773438 271.125 218.917969 273.589844 223.996094 C 262.859375 232.777344 256.113281 242.933594 253.789062 249.609375 C 249.511719 261.941406 252.84375 267.53125 259.15625 268.835938 C 261.988281 269.417969 266.046875 268.109375 269.09375 266.804688 C 272.863281 265.570312 277.4375 263.46875 281.640625 260.34375 C 288.894531 254.976562 295.855469 247.503906 295.496094 237.421875 C 295.273438 232.777344 294.042969 228.207031 292.375 223.851562 C 301.511719 220.082031 313.332031 217.902344 328.339844 219.714844 C 360.613281 223.488281 366.992188 243.65625 365.757812 252.070312 C 364.519531 260.484375 357.78125 265.128906 355.53125 266.578125 C 353.277344 267.960938 352.554688 268.464844 352.773438 269.480469 C 353.0625 271.007812 354.078125 270.929688 356.039062 270.640625 C 358.726562 270.207031 373.007812 263.746094 373.589844 248.222656 C 374.457031 228.269531 355.53125 206.503906 321.960938 206.726562 Z M 73.078125 290.679688 C 62.414062 302.363281 47.40625 306.785156 41.027344 303.011719 C 34.132812 299.019531 36.820312 281.832031 49.949219 269.421875 C 57.925781 261.878906 68.296875 254.914062 75.113281 250.628906 L 81.714844 246.636719 C 82.148438 246.347656 82.441406 246.203125 82.441406 246.203125 C 82.949219 245.910156 83.53125 245.546875 84.109375 245.1875 C 88.972656 262.886719 84.332031 278.410156 73.089844 290.675781 Z M 151.042969 237.648438 C 147.339844 246.71875 139.511719 270.003906 134.800781 268.695312 C 130.738281 267.605469 128.273438 249.980469 134 232.5625 C 136.898438 223.78125 143.066406 213.335938 146.691406 209.273438 C 152.570312 202.746094 158.949219 200.570312 160.542969 203.25 C 162.429688 206.730469 153.363281 231.976562 151.042969 237.640625 Z M 215.363281 268.40625 C 213.769531 269.207031 212.320312 269.789062 211.664062 269.351562 C 211.152344 269.0625 212.320312 267.972656 212.320312 267.972656 C 212.320312 267.972656 220.371094 259.335938 223.5625 255.347656 L 229.875 247.292969 L 229.875 248.164062 C 229.875 258.609375 219.867188 265.574219 215.371094 268.40625 Z M 264.964844 257.089844 C 263.804688 256.21875 263.949219 253.53125 267.863281 245.117188 C 269.390625 241.78125 272.871094 236.191406 278.886719 230.898438 C 279.613281 233.074219 280.046875 235.179688 279.976562 237.136719 C 279.902344 250.195312 270.621094 255.058594 264.964844 257.089844 Z M 264.964844 257.089844 " fill-opacity="1" fill-rule="nonzero"/></svg>